<svg width="269" height="82" viewBox="0 0 269 82" fill="none" xmlns="http://www.w3.org/2000/svg">
<path d="M108.37 27.4688V44.0442C108.37 46.0147 108.881 47.4989 109.904 48.4967C110.951 49.4944 112.398 49.9933 114.244 49.9933C116.115 49.9933 117.562 49.4944 118.584 48.4967C119.632 47.4989 120.156 46.0147 120.156 44.0442V27.4688H124.421V43.9693C124.421 46.0896 123.96 47.8855 123.037 49.3572C122.114 50.8289 120.879 51.9265 119.333 52.6499C117.786 53.3732 116.077 53.7349 114.207 53.7349C112.336 53.7349 110.627 53.3732 109.081 52.6499C107.559 51.9265 106.349 50.8289 105.451 49.3572C104.553 47.8855 104.104 46.0896 104.104 43.9693V27.4688H108.37ZM134.24 35.8874C134.964 34.9396 135.949 34.1413 137.196 33.4928C138.443 32.8443 139.853 32.52 141.424 32.52C143.22 32.52 144.854 32.969 146.326 33.867C147.822 34.74 148.995 35.9747 149.843 37.5712C150.691 39.1676 151.115 41.001 151.115 43.0713C151.115 45.1417 150.691 47 149.843 48.6463C148.995 50.2677 147.822 51.5399 146.326 52.4628C144.854 53.3608 143.22 53.8098 141.424 53.8098C139.853 53.8098 138.456 53.498 137.234 52.8744C136.011 52.2258 135.014 51.4276 134.24 50.4797V63.2761H129.975V32.8567H134.24V35.8874ZM146.775 43.0713C146.775 41.6495 146.475 40.4273 145.877 39.4045C145.303 38.3569 144.53 37.5712 143.557 37.0473C142.609 36.4986 141.586 36.2242 140.489 36.2242C139.416 36.2242 138.394 36.4986 137.421 37.0473C136.473 37.5961 135.7 38.3943 135.101 39.442C134.527 40.4896 134.24 41.7244 134.24 43.1462C134.24 44.568 134.527 45.8152 135.101 46.8878C135.7 47.9354 136.473 48.7336 137.421 49.2824C138.394 49.8312 139.416 50.1056 140.489 50.1056C141.586 50.1056 142.609 49.8312 143.557 49.2824C144.53 48.7087 145.303 47.8855 145.877 46.8129C146.475 45.7404 146.775 44.4931 146.775 43.0713ZM159.599 25.7851V53.473H155.333V25.7851H159.599ZM174.141 53.8098C172.195 53.8098 170.437 53.3732 168.865 52.5002C167.294 51.6022 166.059 50.355 165.161 48.7586C164.263 47.1372 163.814 45.2664 163.814 43.1462C163.814 41.0509 164.276 39.1925 165.199 37.5712C166.122 35.9498 167.381 34.7026 168.978 33.8295C170.574 32.9565 172.358 32.52 174.328 32.52C176.299 32.52 178.082 32.9565 179.679 33.8295C181.275 34.7026 182.535 35.9498 183.458 37.5712C184.381 39.1925 184.842 41.0509 184.842 43.1462C184.842 45.2415 184.368 47.0998 183.42 48.7212C182.472 50.3425 181.175 51.6022 179.529 52.5002C177.908 53.3732 176.112 53.8098 174.141 53.8098ZM174.141 50.1056C175.239 50.1056 176.261 49.8437 177.209 49.3198C178.182 48.796 178.968 48.0103 179.566 46.9626C180.165 45.915 180.464 44.6428 180.464 43.1462C180.464 41.6495 180.178 40.3898 179.604 39.3671C179.03 38.3195 178.269 37.5337 177.322 37.0099C176.374 36.4861 175.351 36.2242 174.253 36.2242C173.156 36.2242 172.133 36.4861 171.185 37.0099C170.262 37.5337 169.526 38.3195 168.978 39.3671C168.429 40.3898 168.155 41.6495 168.155 43.1462C168.155 45.3662 168.716 47.0873 169.838 48.3096C170.986 49.5069 172.42 50.1056 174.141 50.1056ZM187.637 43.0713C187.637 41.001 188.061 39.1676 188.909 37.5712C189.782 35.9747 190.955 34.74 192.426 33.867C193.923 32.969 195.569 32.52 197.365 32.52C198.987 32.52 200.396 32.8443 201.593 33.4928C202.815 34.1164 203.788 34.9021 204.512 35.85V32.8567H208.815V53.473H204.512V50.4049C203.788 51.3777 202.803 52.1884 201.556 52.8369C200.309 53.4855 198.887 53.8098 197.29 53.8098C195.519 53.8098 193.898 53.3608 192.426 52.4628C190.955 51.5399 189.782 50.2677 188.909 48.6463C188.061 47 187.637 45.1417 187.637 43.0713ZM204.512 43.1462C204.512 41.7244 204.212 40.4896 203.614 39.442C203.04 38.3943 202.279 37.5961 201.331 37.0473C200.383 36.4986 199.361 36.2242 198.263 36.2242C197.166 36.2242 196.143 36.4986 195.195 37.0473C194.247 37.5712 193.474 38.3569 192.875 39.4045C192.302 40.4273 192.015 41.6495 192.015 43.0713C192.015 44.4931 192.302 45.7404 192.875 46.8129C193.474 47.8855 194.247 48.7087 195.195 49.2824C196.168 49.8312 197.191 50.1056 198.263 50.1056C199.361 50.1056 200.383 49.8312 201.331 49.2824C202.279 48.7336 203.04 47.9354 203.614 46.8878C204.212 45.8152 204.512 44.568 204.512 43.1462ZM212.995 43.0713C212.995 41.001 213.419 39.1676 214.267 37.5712C215.14 35.9747 216.313 34.74 217.784 33.867C219.281 32.969 220.94 32.52 222.761 32.52C224.108 32.52 225.43 32.8193 226.727 33.418C228.049 33.9917 229.097 34.7649 229.87 35.7378V25.7851H234.173V53.473H229.87V50.3675C229.171 51.3652 228.199 52.1884 226.951 52.8369C225.729 53.4855 224.32 53.8098 222.723 53.8098C220.927 53.8098 219.281 53.3608 217.784 52.4628C216.313 51.5399 215.14 50.2677 214.267 48.6463C213.419 47 212.995 45.1417 212.995 43.0713ZM229.87 43.1462C229.87 41.7244 229.571 40.4896 228.972 39.442C228.398 38.3943 227.637 37.5961 226.689 37.0473C225.742 36.4986 224.719 36.2242 223.621 36.2242C222.524 36.2242 221.501 36.4986 220.553 37.0473C219.605 37.5712 218.832 38.3569 218.233 39.4045C217.66 40.4273 217.373 41.6495 217.373 43.0713C217.373 44.4931 217.66 45.7404 218.233 46.8129C218.832 47.8855 219.605 48.7087 220.553 49.2824C221.526 49.8312 222.549 50.1056 223.621 50.1056C224.719 50.1056 225.742 49.8312 226.689 49.2824C227.637 48.7336 228.398 47.9354 228.972 46.8878C229.571 45.8152 229.87 44.568 229.87 43.1462ZM244.041 27.4688V53.473H239.775V27.4688H244.041ZM266.441 27.4688V30.9485H259.519V53.473H255.253V30.9485H248.294V27.4688H266.441Z" fill="white"/>
<rect opacity="0.2" width="74.8323" height="74.8323" rx="37.4161" fill="white"/>
<rect x="32.7393" y="31.1801" width="49.8882" height="49.8882" rx="24.9441" fill="white"/>
</svg>
