<svg width="172" height="52" viewBox="0 0 172 52" fill="none" xmlns="http://www.w3.org/2000/svg">
<path d="M69.512 17.32V27.952C69.512 29.216 69.84 30.168 70.496 30.808C71.168 31.448 72.096 31.768 73.28 31.768C74.48 31.768 75.408 31.448 76.064 30.808C76.736 30.168 77.072 29.216 77.072 27.952V17.32H79.808V27.904C79.808 29.264 79.512 30.416 78.92 31.36C78.328 32.304 77.536 33.008 76.544 33.472C75.552 33.936 74.456 34.168 73.256 34.168C72.056 34.168 70.96 33.936 69.968 33.472C68.992 33.008 68.216 32.304 67.64 31.36C67.064 30.416 66.776 29.264 66.776 27.904V17.32H69.512ZM86.1063 22.72C86.5703 22.112 87.2023 21.6 88.0023 21.184C88.8023 20.768 89.7063 20.56 90.7143 20.56C91.8663 20.56 92.9143 20.848 93.8583 21.424C94.8183 21.984 95.5703 22.776 96.1143 23.8C96.6583 24.824 96.9303 26 96.9303 27.328C96.9303 28.656 96.6583 29.848 96.1143 30.904C95.5703 31.944 94.8183 32.76 93.8583 33.352C92.9143 33.928 91.8663 34.216 90.7143 34.216C89.7063 34.216 88.8103 34.016 88.0263 33.616C87.2423 33.2 86.6023 32.688 86.1063 32.08V40.288H83.3703V20.776H86.1063V22.72ZM94.1463 27.328C94.1463 26.416 93.9543 25.632 93.5703 24.976C93.2023 24.304 92.7063 23.8 92.0823 23.464C91.4743 23.112 90.8183 22.936 90.1143 22.936C89.4263 22.936 88.7703 23.112 88.1463 23.464C87.5383 23.816 87.0423 24.328 86.6583 25C86.2903 25.672 86.1063 26.464 86.1063 27.376C86.1063 28.288 86.2903 29.088 86.6583 29.776C87.0423 30.448 87.5383 30.96 88.1463 31.312C88.7703 31.664 89.4263 31.84 90.1143 31.84C90.8183 31.84 91.4743 31.664 92.0823 31.312C92.7063 30.944 93.2023 30.416 93.5703 29.728C93.9543 29.04 94.1463 28.24 94.1463 27.328ZM102.372 16.24V34H99.6359V16.24H102.372ZM111.7 34.216C110.452 34.216 109.324 33.936 108.316 33.376C107.308 32.8 106.516 32 105.94 30.976C105.364 29.936 105.076 28.736 105.076 27.376C105.076 26.032 105.372 24.84 105.964 23.8C106.556 22.76 107.364 21.96 108.388 21.4C109.412 20.84 110.556 20.56 111.82 20.56C113.084 20.56 114.228 20.84 115.252 21.4C116.276 21.96 117.084 22.76 117.676 23.8C118.268 24.84 118.564 26.032 118.564 27.376C118.564 28.72 118.26 29.912 117.652 30.952C117.044 31.992 116.212 32.8 115.156 33.376C114.116 33.936 112.964 34.216 111.7 34.216ZM111.7 31.84C112.404 31.84 113.06 31.672 113.668 31.336C114.292 31 114.796 30.496 115.18 29.824C115.564 29.152 115.756 28.336 115.756 27.376C115.756 26.416 115.572 25.608 115.204 24.952C114.836 24.28 114.348 23.776 113.74 23.44C113.132 23.104 112.476 22.936 111.772 22.936C111.068 22.936 110.412 23.104 109.804 23.44C109.212 23.776 108.74 24.28 108.388 24.952C108.036 25.608 107.86 26.416 107.86 27.376C107.86 28.8 108.22 29.904 108.94 30.688C109.676 31.456 110.596 31.84 111.7 31.84ZM120.357 27.328C120.357 26 120.629 24.824 121.173 23.8C121.733 22.776 122.485 21.984 123.429 21.424C124.389 20.848 125.445 20.56 126.597 20.56C127.637 20.56 128.541 20.768 129.309 21.184C130.093 21.584 130.717 22.088 131.181 22.696V20.776H133.941V34H131.181V32.032C130.717 32.656 130.085 33.176 129.285 33.592C128.485 34.008 127.573 34.216 126.549 34.216C125.413 34.216 124.373 33.928 123.429 33.352C122.485 32.76 121.733 31.944 121.173 30.904C120.629 29.848 120.357 28.656 120.357 27.328ZM131.181 27.376C131.181 26.464 130.989 25.672 130.605 25C130.237 24.328 129.749 23.816 129.141 23.464C128.533 23.112 127.877 22.936 127.173 22.936C126.469 22.936 125.813 23.112 125.205 23.464C124.597 23.8 124.101 24.304 123.717 24.976C123.349 25.632 123.165 26.416 123.165 27.328C123.165 28.24 123.349 29.04 123.717 29.728C124.101 30.416 124.597 30.944 125.205 31.312C125.829 31.664 126.485 31.84 127.173 31.84C127.877 31.84 128.533 31.664 129.141 31.312C129.749 30.96 130.237 30.448 130.605 29.776C130.989 29.088 131.181 28.288 131.181 27.376ZM136.622 27.328C136.622 26 136.894 24.824 137.438 23.8C137.998 22.776 138.75 21.984 139.694 21.424C140.654 20.848 141.718 20.56 142.886 20.56C143.75 20.56 144.598 20.752 145.43 21.136C146.278 21.504 146.95 22 147.446 22.624V16.24H150.206V34H147.446V32.008C146.998 32.648 146.374 33.176 145.574 33.592C144.79 34.008 143.886 34.216 142.862 34.216C141.71 34.216 140.654 33.928 139.694 33.352C138.75 32.76 137.998 31.944 137.438 30.904C136.894 29.848 136.622 28.656 136.622 27.328ZM147.446 27.376C147.446 26.464 147.254 25.672 146.87 25C146.502 24.328 146.014 23.816 145.406 23.464C144.798 23.112 144.142 22.936 143.438 22.936C142.734 22.936 142.078 23.112 141.47 23.464C140.862 23.8 140.366 24.304 139.982 24.976C139.614 25.632 139.43 26.416 139.43 27.328C139.43 28.24 139.614 29.04 139.982 29.728C140.366 30.416 140.862 30.944 141.47 31.312C142.094 31.664 142.75 31.84 143.438 31.84C144.142 31.84 144.798 31.664 145.406 31.312C146.014 30.96 146.502 30.448 146.87 29.776C147.254 29.088 147.446 28.288 147.446 27.376ZM156.536 17.32V34H153.8V17.32H156.536ZM170.904 17.32V19.552H166.464V34H163.728V19.552H159.264V17.32H170.904Z" fill="#FA7275"/>
<rect opacity="0.2" width="48" height="48" rx="24" fill="#FA7275"/>
<rect x="21" y="20" width="32" height="32" rx="16" fill="#FA7275"/>
</svg>
